{
 "cells": [
  {
   "cell_type": "code",
   "execution_count": 1,
   "metadata": {},
   "outputs": [],
   "source": [
    "import numpy as np\n",
    "import pandas as pd\n",
    "import matplotlib.pyplot as plt\n",
    "import skvideo.io\n",
    "import skimage\n",
    "import cv2\n",
    "\n",
    "import os\n",
    "import tqdm\n",
    "\n",
    "import torch\n",
    "import torch.nn as nn\n",
    "import torch.nn.functional as F\n",
    "from torchsummary import summary\n",
    "\n",
    "from model.warplayer import warp\n",
    "from model.refine import *"
   ]
  },
  {
   "cell_type": "code",
   "execution_count": 2,
   "metadata": {},
   "outputs": [
    {
     "name": "stderr",
     "output_type": "stream",
     "text": [
      "/Users/bhagwat/miniconda3/envs/conda-DestVI/lib/python3.10/site-packages/torchvision/io/image.py:13: UserWarning: Failed to load image Python extension: dlopen(/Users/bhagwat/miniconda3/envs/conda-DestVI/lib/python3.10/site-packages/torchvision/image.so, 0x0006): Symbol not found: __ZN2at4_ops19empty_memory_format4callEN3c108ArrayRefINS2_6SymIntEEENS2_8optionalINS2_10ScalarTypeEEENS6_INS2_6LayoutEEENS6_INS2_6DeviceEEENS6_IbEENS6_INS2_12MemoryFormatEEE\n",
      "  Referenced from: <0B637046-A38B-3A5C-80C6-E847C27DCCD5> /Users/bhagwat/miniconda3/envs/conda-DestVI/lib/python3.10/site-packages/torchvision/image.so\n",
      "  Expected in:     <5B3E6F5D-79A8-320C-BB50-9EDE6B0839DA> /Users/bhagwat/miniconda3/envs/conda-DestVI/lib/python3.10/site-packages/torch/lib/libtorch_cpu.dylib\n",
      "  warn(f\"Failed to load image Python extension: {e}\")\n"
     ]
    }
   ],
   "source": [
    "from model.RIFE import Model\n",
    "model = Model()\n",
    "# model.load_model('/content/drive/MyDrive/my_model', -1)\n",
    "model.load_model('./train_log/', -1)"
   ]
  },
  {
   "cell_type": "code",
   "execution_count": 3,
   "metadata": {},
   "outputs": [
    {
     "name": "stderr",
     "output_type": "stream",
     "text": [
      "ffmpeg version 5.1.2 Copyright (c) 2000-2022 the FFmpeg developers\n",
      "  built with Apple clang version 14.0.0 (clang-1400.0.29.202)\n",
      "  configuration: --prefix=/opt/homebrew/Cellar/ffmpeg/5.1.2_5 --enable-shared --enable-pthreads --enable-version3 --cc=clang --host-cflags= --host-ldflags= --enable-ffplay --enable-gnutls --enable-gpl --enable-libaom --enable-libaribb24 --enable-libbluray --enable-libdav1d --enable-libmp3lame --enable-libopus --enable-librav1e --enable-librist --enable-librubberband --enable-libsnappy --enable-libsrt --enable-libsvtav1 --enable-libtesseract --enable-libtheora --enable-libvidstab --enable-libvmaf --enable-libvorbis --enable-libvpx --enable-libwebp --enable-libx264 --enable-libx265 --enable-libxml2 --enable-libxvid --enable-lzma --enable-libfontconfig --enable-libfreetype --enable-frei0r --enable-libass --enable-libopencore-amrnb --enable-libopencore-amrwb --enable-libopenjpeg --enable-libspeex --enable-libsoxr --enable-libzmq --enable-libzimg --disable-libjack --disable-indev=jack --enable-videotoolbox --enable-neon\n",
      "  libavutil      57. 28.100 / 57. 28.100\n",
      "  libavcodec     59. 37.100 / 59. 37.100\n",
      "  libavformat    59. 27.100 / 59. 27.100\n",
      "  libavdevice    59.  7.100 / 59.  7.100\n",
      "  libavfilter     8. 44.100 /  8. 44.100\n",
      "  libswscale      6.  7.100 /  6.  7.100\n",
      "  libswresample   4.  7.100 /  4.  7.100\n",
      "  libpostproc    56.  6.100 / 56.  6.100\n",
      "Input #0, mov,mp4,m4a,3gp,3g2,mj2, from 'sample.mp4':\n",
      "  Metadata:\n",
      "    major_brand     : isom\n",
      "    minor_version   : 512\n",
      "    compatible_brands: isomiso2avc1mp41\n",
      "    encoder         : Lavf58.29.100\n",
      "  Duration: 00:00:17.86, start: 0.000000, bitrate: 3928 kb/s\n",
      "  Stream #0:0[0x1](und): Video: h264 (High) (avc1 / 0x31637661), yuv420p(progressive), 1280x720 [SAR 1:1 DAR 16:9], 3924 kb/s, 29.97 fps, 29.97 tbr, 30k tbn (default)\n",
      "    Metadata:\n",
      "      handler_name    : VideoHandler\n",
      "      vendor_id       : [0][0][0][0]\n",
      "  Stream #0:1[0x2](eng): Audio: aac (LC) (mp4a / 0x6134706D), 48000 Hz, stereo, fltp, 2 kb/s (default)\n",
      "    Metadata:\n",
      "      handler_name    : Apple Sound Media Handler\n",
      "      vendor_id       : [0][0][0][0]\n",
      "File 'sample2.mp4' already exists. Overwrite? [y/N] Not overwriting - exiting\n"
     ]
    },
    {
     "data": {
      "text/plain": [
       "256"
      ]
     },
     "execution_count": 3,
     "metadata": {},
     "output_type": "execute_result"
    }
   ],
   "source": [
    "import os\n",
    "os.system('ffmpeg -i \"sample.mp4\" -vcodec libx265 -x265-params \"crf=45\" -r 3 -vf \"scale=trunc(iw/2)*2:trunc(ih/2)*2, mpdecimate\" sample2.mp4')"
   ]
  },
  {
   "cell_type": "code",
   "execution_count": 36,
   "metadata": {},
   "outputs": [
    {
     "name": "stdout",
     "output_type": "stream",
     "text": [
      "Loaded ArXiv-RIFE model\n",
      "sample2.mp4, 55.0 frames in total, 3.0FPS to 6.0FPS\n",
      "The audio will be merged after interpolation process\n"
     ]
    },
    {
     "name": "stderr",
     "output_type": "stream",
     "text": [
      " 98%|█████████▊| 54/55.0 [00:22<00:00,  2.39it/s]\n",
      "Traceback (most recent call last):\n",
      "  File \"/Users/bhagwat/Programs/UGP/Priyanka Bagade/ECCV2022-RIFE/inference_video.py\", line 304, in <module>\n",
      "    transferAudio(args.video, vid_out_name)\n",
      "  File \"/Users/bhagwat/Programs/UGP/Priyanka Bagade/ECCV2022-RIFE/inference_video.py\", line 18, in transferAudio\n",
      "    import moviepy.editor\n",
      "ModuleNotFoundError: No module named 'moviepy'\n",
      "\n",
      "During handling of the above exception, another exception occurred:\n",
      "\n",
      "Traceback (most recent call last):\n",
      "  File \"/Users/bhagwat/Programs/UGP/Priyanka Bagade/ECCV2022-RIFE/inference_video.py\", line 308, in <module>\n",
      "    os.rename(targetNoAudio, vid_out_name)\n",
      "FileNotFoundError: [Errno 2] No such file or directory: 'sample3_noaudio.mp4' -> 'sample3.mp4'\n"
     ]
    },
    {
     "name": "stdout",
     "output_type": "stream",
     "text": [
      "Audio transfer failed. Interpolated video will have no audio\n"
     ]
    },
    {
     "data": {
      "text/plain": [
       "256"
      ]
     },
     "execution_count": 36,
     "metadata": {},
     "output_type": "execute_result"
    }
   ],
   "source": [
    "os.system('python3 inference_video.py --exp=1 --video=sample2.mp4 --scale=0.25 --output=sample3.mp4')"
   ]
  },
  {
   "cell_type": "code",
   "execution_count": null,
   "metadata": {},
   "outputs": [],
   "source": []
  }
 ],
 "metadata": {
  "kernelspec": {
   "display_name": "conda-DestVI",
   "language": "python",
   "name": "python3"
  },
  "language_info": {
   "codemirror_mode": {
    "name": "ipython",
    "version": 3
   },
   "file_extension": ".py",
   "mimetype": "text/x-python",
   "name": "python",
   "nbconvert_exporter": "python",
   "pygments_lexer": "ipython3",
   "version": "3.10.8"
  },
  "orig_nbformat": 4,
  "vscode": {
   "interpreter": {
    "hash": "e87f6a064ee2f95e706b00eb02e752f9ee94f54a345f94f1178c9544f67a20cd"
   }
  }
 },
 "nbformat": 4,
 "nbformat_minor": 2
}
